<svg id="SvgjsSvg1001" width="288" height="288" xmlns="http://www.w3.org/2000/svg" version="1.1" xmlns:xlink="http://www.w3.org/1999/xlink" xmlns:svgjs="http://svgjs.com/svgjs"><defs id="SvgjsDefs1002"></defs><g id="SvgjsG1008"><svg xmlns="http://www.w3.org/2000/svg" xmlns:svgjs="http://svgjs.com/svgjs" xmlns:xlink="http://www.w3.org/1999/xlink" viewBox="0 0 288 288" width="288" height="288"><svg xmlns="http://www.w3.org/2000/svg" viewBox="0 0 256 256" width="288" height="288"><g stroke="#ffd500" stroke-dasharray="#3a9361" stroke-miterlimit="10" stroke-width="0" class="colorStroke3a9361 svgStroke colorStroke00296b" transform="matrix(2.81 0 0 2.81 1.407 1.407)"><path fill="#ffd500" stroke-width="1" d="M 56.938 63.17 V 26.831 c 0 -3.319 2.7 -6.02 6.02 -6.02 h 7.581 C 63.325 11.545 52.074 5.578 39.422 5.578 C 17.65 5.578 0 23.228 0 45 s 17.65 39.422 39.422 39.422 c 12.652 0 23.903 -5.967 31.116 -15.232 h -7.58 C 59.639 69.189 56.938 66.489 56.938 63.17 z M 32.744 36.9 c 0.59 1.572 1.858 2.747 3.482 3.223 c 0.088 0.026 0.174 0.054 0.26 0.086 l 4.627 1.695 c 4.1 1.251 7.306 4.255 8.809 8.264 c 1.283 3.419 1.156 7.134 -0.355 10.459 c -1.512 3.325 -4.227 5.862 -7.648 7.145 c -0.106 0.04 -0.214 0.067 -0.32 0.104 v 1.886 c 0 2.307 -1.87 4.177 -4.177 4.177 c -2.307 0 -4.177 -1.87 -4.177 -4.177 v -1.693 c -0.604 -0.18 -1.202 -0.386 -1.785 -0.652 c -3.325 -1.511 -5.862 -4.227 -7.145 -7.647 c -0.81 -2.16 0.285 -4.568 2.444 -5.378 c 2.159 -0.808 4.568 0.285 5.378 2.445 c 0.499 1.331 1.486 2.388 2.78 2.975 c 1.294 0.588 2.739 0.637 4.069 0.138 c 1.331 -0.499 2.387 -1.486 2.975 -2.779 c 0.588 -1.294 0.637 -2.739 0.138 -4.068 c -0.589 -1.572 -1.859 -2.747 -3.483 -3.224 c -0.087 -0.026 -0.174 -0.054 -0.26 -0.086 l -4.626 -1.694 c -4.1 -1.25 -7.305 -4.255 -8.808 -8.263 c -2.647 -7.06 0.942 -14.957 8.002 -17.605 c 0.106 -0.04 0.214 -0.065 0.32 -0.102 v -1.888 c 0 -2.307 1.87 -4.177 4.177 -4.177 c 2.307 0 4.177 1.87 4.177 4.177 v 1.702 c 3.97 1.18 7.367 4.123 8.93 8.291 c 0.81 2.16 -0.284 4.568 -2.444 5.378 c -2.161 0.809 -4.568 -0.284 -5.378 -2.444 c -0.499 -1.331 -1.486 -2.387 -2.78 -2.975 c -1.294 -0.588 -2.739 -0.637 -4.069 -0.138 c -1.33 0.499 -2.387 1.486 -2.975 2.78 C 32.295 34.124 32.245 35.57 32.744 36.9 z" class="color000 svgShape color0d47a5"></path><path fill="#ffd500" stroke-width="1" d="M 87.98 24.811 H 62.958 c -1.115 0 -2.02 0.904 -2.02 2.02 V 63.17 c 0 1.115 0.904 2.02 2.02 2.02 H 87.98 c 1.115 0 2.02 -0.904 2.02 -2.02 V 26.83 C 90 25.715 89.096 24.811 87.98 24.811 z M 73.178 59.684 h -6.734 V 52.95 h 6.734 V 59.684 z M 73.178 48.367 h -6.734 v -6.734 h 6.734 V 48.367 z M 84.495 59.684 h -6.734 V 52.95 h 6.734 V 59.684 z M 84.495 48.367 h -6.734 v -6.734 h 6.734 V 48.367 z M 84.495 37.05 H 66.444 v -6.734 h 18.051 V 37.05 z" class="color000 svgShape color0d47a5"></path></g></svg></svg></g></svg>